<svg xmlns="http://www.w3.org/2000/svg" viewBox="0 0 247.61 328.5"><defs><style>.cls-1{fill:#ff2c2c;}</style></defs><title>flagAsset 2</title><g id="Layer_2" data-name="Layer 2"><g id="Layer_1-2" data-name="Layer 1"><path class="cls-1" d="M238.36,124.6,84,175.5V259A13.46,13.46,0,0,0,97.46,272.5h1.08A13.46,13.46,0,0,1,112,286V315A13.46,13.46,0,0,1,98.54,328.5H13.46A13.46,13.46,0,0,1,0,315V286A13.46,13.46,0,0,1,13.46,272.5h1.08A13.46,13.46,0,0,0,28,259V13.48a13.46,13.46,0,0,1,19.58-12L240.26,99.83A13.46,13.46,0,0,1,238.36,124.6Z"/></g></g></svg>