<svg xmlns="http://www.w3.org/2000/svg" viewBox="0 0 308.11 53"><defs><style>.cls-1{fill:#ff2c2c;}.cls-2{fill:#fff;}</style></defs><title>logoAsset 3</title><g id="Layer_2" data-name="Layer 2"><g id="Layer_1-2" data-name="Layer 1"><path class="cls-1" d="M274,20.1l-24.9,8.21V41.79A2.17,2.17,0,0,0,251.3,44h.17a2.19,2.19,0,0,1,2.18,2.18v4.69A2.18,2.18,0,0,1,251.47,53H237.75a2.17,2.17,0,0,1-2.17-2.17V46.14A2.18,2.18,0,0,1,237.75,44h.17a2.17,2.17,0,0,0,2.17-2.17V2.17A2.17,2.17,0,0,1,243.25.24l31.09,15.87A2.16,2.16,0,0,1,274,20.1Z"/><path class="cls-2" d="M37.67,19.81a.88.88,0,0,1-.58.83,3.62,3.62,0,0,0-1.18.61,2.28,2.28,0,0,0-.64,1.15A11.3,11.3,0,0,0,35.08,25V46.07a14.38,14.38,0,0,0,.15,2.35,2.39,2.39,0,0,0,.6,1.32,3.3,3.3,0,0,0,1.25.65.87.87,0,0,1,.59.83v.07a.87.87,0,0,1-.88.88H26a.8.8,0,0,1-.8-.8v-.21a.79.79,0,0,1,.57-.76,6.76,6.76,0,0,0,.92-.35,1.72,1.72,0,0,0,.64-.58,2.58,2.58,0,0,0,.34-1.07A16.71,16.71,0,0,0,27.73,46v-12c0-1.32,0-2.88.08-4.67s-.77-2.51-1-1.89-.63,1.75-1.23,3.36L19.43,47.45a1.6,1.6,0,0,1-1.5,1h-2a1.6,1.6,0,0,1-1.51-1.08L7.86,28.69c-.41-1.13-1.27,2.51-1.27,6.17V46.09a12.73,12.73,0,0,0,.17,2.52,2.25,2.25,0,0,0,.69,1.17,3.33,3.33,0,0,0,1.23.63.8.8,0,0,1,.55.76v.19a.81.81,0,0,1-.81.81H.68A.68.68,0,0,1,0,51.49v-.42a.68.68,0,0,1,.46-.65,4.73,4.73,0,0,0,1-.4,1.92,1.92,0,0,0,.79-.78A3,3,0,0,0,2.55,48c0-.51.06-1.15.06-1.93V25a12.92,12.92,0,0,0-.16-2.54,2.14,2.14,0,0,0-.62-1.12,3.62,3.62,0,0,0-1.22-.64.93.93,0,0,1,.32-1.8H11.66a.68.68,0,0,1,.63.45L18.5,37.7a.44.44,0,0,0,.83,0L26,19.48a1,1,0,0,1,.91-.63h9.89a.88.88,0,0,1,.88.88Z"/><path class="cls-2" d="M42.11,51.23a.93.93,0,0,1,.6-.86,2.59,2.59,0,0,0,1-.64,2.79,2.79,0,0,0,.61-1.39,20.64,20.64,0,0,0,.16-3.2V33.79a14,14,0,0,0-.11-1.93A2.73,2.73,0,0,0,44,30.69a1.89,1.89,0,0,0-.83-.67,4.6,4.6,0,0,0-.69-.24.94.94,0,0,1-.67-.89v0a.92.92,0,0,1,.9-.92l5.82-.17h2.12a.93.93,0,0,1,.93.92V45.12c0,.91,0,1.61,0,2.11a10.68,10.68,0,0,0,.11,1.15,3.79,3.79,0,0,0,.21.72,2.63,2.63,0,0,0,.35.58,2.11,2.11,0,0,0,.64.49,4.55,4.55,0,0,0,.48.21.93.93,0,0,1,.62.87h0a.93.93,0,0,1-.93.92H43a.93.93,0,0,1-.93-.92Zm9.28-32.09v4.13a.92.92,0,0,1-.92.92H45.63a.93.93,0,0,1-.93-.92V19.14a.93.93,0,0,1,.93-.93h4.84A.93.93,0,0,1,51.39,19.14Z"/><path class="cls-2" d="M83.47,52.17h-10a.92.92,0,0,1-.92-.92h0a.92.92,0,0,1,.6-.86,2.21,2.21,0,0,0,1-.61,3,3,0,0,0,.6-1.42,22.19,22.19,0,0,0,.16-3.21V38.62c0-1.15,0-2.1-.08-2.84A10.76,10.76,0,0,0,74.57,34a3.78,3.78,0,0,0-.44-1.18,3.15,3.15,0,0,0-.62-.79,2.34,2.34,0,0,0-.78-.45,3.56,3.56,0,0,0-1.12-.14,3.88,3.88,0,0,0-1.93.57A5,5,0,0,0,68,33.56a3.81,3.81,0,0,0-.68,2.16v9.4a23,23,0,0,0,.15,3.22,2.8,2.8,0,0,0,.59,1.43,2.47,2.47,0,0,0,1,.61.92.92,0,0,1,.61.87h0a.92.92,0,0,1-.92.92H58.79a.93.93,0,0,1-.93-.92v0a.93.93,0,0,1,.59-.86,2.5,2.5,0,0,0,1-.64,2.79,2.79,0,0,0,.62-1.39,22.47,22.47,0,0,0,.15-3.2v-10c0-1.21,0-2.1-.06-2.68A4.39,4.39,0,0,0,59.9,31a2,2,0,0,0-.71-.85,3.27,3.27,0,0,0-1-.41.94.94,0,0,1-.69-.89v0a.92.92,0,0,1,.9-.92l5.79-.17h2a.92.92,0,0,1,.92,1l-.26,2.49.3.08a25.93,25.93,0,0,1,2.66-2.12A11.3,11.3,0,0,1,72.3,28,7.81,7.81,0,0,1,75,27.56a8.2,8.2,0,0,1,3.32.58,5.22,5.22,0,0,1,2.14,1.67,7.14,7.14,0,0,1,1.17,2.68,16.88,16.88,0,0,1,.35,3.69v8.94c0,.71,0,1.38,0,2a7.47,7.47,0,0,0,.18,1.5,2.8,2.8,0,0,0,.41.92,2.18,2.18,0,0,0,.72.6,4.11,4.11,0,0,0,.51.22.94.94,0,0,1,.61.87h0A.92.92,0,0,1,83.47,52.17Z"/><path class="cls-2" d="M109.17,46.68a1.48,1.48,0,0,1-.09,2.09,14.26,14.26,0,0,1-3.88,2.69,13.45,13.45,0,0,1-5.62,1.1c-3.79,0-6.64-1-8.55-3.11s-2.87-5.16-2.87-9.24a14.71,14.71,0,0,1,1.48-6.83A10,10,0,0,1,93.82,29a12.92,12.92,0,0,1,6.3-1.48,13.11,13.11,0,0,1,3.9.52,8.91,8.91,0,0,1,2.86,1.42,7.89,7.89,0,0,1,2,2.21,12.15,12.15,0,0,1,1.39,3.52,18,18,0,0,1,.46,3.33,1.48,1.48,0,0,1-1.48,1.58H96.83a1.48,1.48,0,0,0-1.48,1.58,9.45,9.45,0,0,0,1.51,4.92,5.52,5.52,0,0,0,4.73,2.09,7.71,7.71,0,0,0,3.34-.7,9.48,9.48,0,0,0,2.16-1.45,1.49,1.49,0,0,1,2.08.1ZM102,37.5a1.48,1.48,0,0,0,1.48-1.59,11.72,11.72,0,0,0-.9-4,2.94,2.94,0,0,0-2.83-1.83,3.36,3.36,0,0,0-3,1.91,10.32,10.32,0,0,0-1.17,3.82,1.48,1.48,0,0,0,1.48,1.67Z"/><path class="cls-2" d="M116.42,43.94a1.91,1.91,0,0,1,1.8,1.35,7.27,7.27,0,0,0,1.69,3,5.69,5.69,0,0,0,4.19,1.43,6.59,6.59,0,0,0,2.58-.49,4,4,0,0,0,1.85-1.58,5,5,0,0,0,.69-2.72,5.66,5.66,0,0,0-.56-2.62,6.56,6.56,0,0,0-1.8-2.12,20.82,20.82,0,0,0-3.47-2.12,29.71,29.71,0,0,1-3.44-2,13,13,0,0,1-2.63-2.26,9.62,9.62,0,0,1-1.68-2.69,8.66,8.66,0,0,1-.6-3.3,8.61,8.61,0,0,1,1.49-5.1,9.16,9.16,0,0,1,4.31-3.19,18.17,18.17,0,0,1,6.53-1.08,34.51,34.51,0,0,1,4.15.23c.91.1,1.91.27,3,.49A1.88,1.88,0,0,1,136,21V24.7a1.9,1.9,0,0,1-1.9,1.89h0a1.92,1.92,0,0,1-1.8-1.32,8.17,8.17,0,0,0-.8-1.75,4.56,4.56,0,0,0-1.8-1.67,6,6,0,0,0-2.71-.54,6.15,6.15,0,0,0-2.49.49,4,4,0,0,0-1.73,1.45,4.11,4.11,0,0,0-.64,2.33,5.25,5.25,0,0,0,.55,2.46,6.35,6.35,0,0,0,1.85,2,25,25,0,0,0,3.76,2.26A24.91,24.91,0,0,1,133,35.39a9.07,9.07,0,0,1,3.36,7.38A9.63,9.63,0,0,1,135,48a8.89,8.89,0,0,1-4.06,3.4,15,15,0,0,1-6.15,1.18,49.44,49.44,0,0,1-5.19-.28c-1.22-.13-2.39-.29-3.51-.5a1.89,1.89,0,0,1-1.55-1.86V45.84a1.89,1.89,0,0,1,1.89-1.9Z"/><path class="cls-2" d="M161.8,51.77l-3.6-12.36a.9.9,0,0,0-1.72,0l-4.22,12.44a.91.91,0,0,1-.85.61h-3.63a.9.9,0,0,1-.86-.63l-5.73-17.95a19.82,19.82,0,0,0-.91-2.48,3.9,3.9,0,0,0-.83-1.2,2.72,2.72,0,0,0-1.24-.6v-.71a.9.9,0,0,1,.9-.9h10.14a.91.91,0,0,1,.9.9h0a.9.9,0,0,1-.66.86,2.93,2.93,0,0,0-1.06.55,1.73,1.73,0,0,0-.58,1.4,5.46,5.46,0,0,0,.2,1.36c.13.5.27,1,.44,1.57L150.72,42a.9.9,0,0,0,1.72,0L157,28.57a.89.89,0,0,1,.85-.62H161a.9.9,0,0,1,.87.66L165.67,42a.9.9,0,0,0,1.71.06l2.25-6.19a16.05,16.05,0,0,0,.67-2.22,8.22,8.22,0,0,0,.18-1.59,2.46,2.46,0,0,0-.58-1.69,2.41,2.41,0,0,0-1.05-.69.91.91,0,0,1-.61-.85v0a.9.9,0,0,1,.9-.9h7.4a.9.9,0,0,1,.9.9V29a.9.9,0,0,1-.53.82,2.79,2.79,0,0,0-.6.32,3.51,3.51,0,0,0-.76.81,9.9,9.9,0,0,0-.81,1.49c-.3.65-.73,1.7-1.3,3.15l-6.35,16.29a.89.89,0,0,1-.84.58h-3.59A.9.9,0,0,1,161.8,51.77Z"/><path class="cls-2" d="M199.47,46.68a1.48,1.48,0,0,1-.08,2.09,14.26,14.26,0,0,1-3.88,2.69,13.45,13.45,0,0,1-5.62,1.1c-3.79,0-6.64-1-8.55-3.11s-2.87-5.16-2.87-9.24a14.83,14.83,0,0,1,1.47-6.83A10,10,0,0,1,184.13,29a14.39,14.39,0,0,1,10.19-1,9,9,0,0,1,2.87,1.42,7.89,7.89,0,0,1,2,2.21,12.15,12.15,0,0,1,1.39,3.52,18.84,18.84,0,0,1,.46,3.33,1.49,1.49,0,0,1-1.48,1.58h-12.4a1.48,1.48,0,0,0-1.48,1.58,9.45,9.45,0,0,0,1.51,4.92,5.5,5.5,0,0,0,4.72,2.09,7.73,7.73,0,0,0,3.35-.7,9.48,9.48,0,0,0,2.16-1.45,1.48,1.48,0,0,1,2.07.1Zm-7.18-9.18a1.48,1.48,0,0,0,1.47-1.59,11.75,11.75,0,0,0-.89-4A2.94,2.94,0,0,0,190,30.1a3.36,3.36,0,0,0-3,1.91,10.32,10.32,0,0,0-1.17,3.82,1.48,1.48,0,0,0,1.47,1.67Z"/><path class="cls-2" d="M226,46.68a1.48,1.48,0,0,1-.08,2.09,14.41,14.41,0,0,1-3.88,2.69,13.45,13.45,0,0,1-5.62,1.1c-3.79,0-6.64-1-8.56-3.11S205,44.29,205,40.21a14.83,14.83,0,0,1,1.48-6.83A10,10,0,0,1,210.67,29a14.39,14.39,0,0,1,10.19-1,9,9,0,0,1,2.87,1.42,7.89,7.89,0,0,1,2,2.21,12.15,12.15,0,0,1,1.39,3.52,18.84,18.84,0,0,1,.46,3.33,1.49,1.49,0,0,1-1.48,1.58h-12.4a1.48,1.48,0,0,0-1.48,1.58,9.45,9.45,0,0,0,1.51,4.92,5.5,5.5,0,0,0,4.72,2.09,7.76,7.76,0,0,0,3.35-.7,9.48,9.48,0,0,0,2.16-1.45,1.48,1.48,0,0,1,2.07.1Zm-7.19-9.18a1.48,1.48,0,0,0,1.48-1.59,11.75,11.75,0,0,0-.89-4,3,3,0,0,0-2.83-1.83,3.35,3.35,0,0,0-3,1.91,10.32,10.32,0,0,0-1.17,3.82,1.48,1.48,0,0,0,1.47,1.67Z"/><path class="cls-2" d="M282.41,46.68a1.49,1.49,0,0,1-.08,2.09,14.3,14.3,0,0,1-3.89,2.69,13.44,13.44,0,0,1-5.61,1.1c-3.8,0-6.65-1-8.56-3.11s-2.87-5.16-2.87-9.24a14.71,14.71,0,0,1,1.48-6.83A10,10,0,0,1,267.07,29a12.85,12.85,0,0,1,6.29-1.48,13.06,13.06,0,0,1,3.9.52,9.07,9.07,0,0,1,2.87,1.42,8,8,0,0,1,2,2.21,12.17,12.17,0,0,1,1.4,3.52,19.82,19.82,0,0,1,.46,3.33,1.5,1.5,0,0,1-1.49,1.58h-12.4a1.49,1.49,0,0,0-1.48,1.58,9.55,9.55,0,0,0,1.51,4.92,5.52,5.52,0,0,0,4.73,2.09,7.68,7.68,0,0,0,3.34-.7,9.48,9.48,0,0,0,2.16-1.45,1.49,1.49,0,0,1,2.08.1Zm-7.19-9.18a1.48,1.48,0,0,0,1.48-1.59,11.75,11.75,0,0,0-.89-4A3,3,0,0,0,273,30.1,3.36,3.36,0,0,0,270,32a10.52,10.52,0,0,0-1.16,3.82,1.48,1.48,0,0,0,1.47,1.67Z"/><path class="cls-2" d="M296.92,31.44l.32.08a11.84,11.84,0,0,1,3.66-3,9.12,9.12,0,0,1,4.08-.93,15.12,15.12,0,0,1,2.37.19.91.91,0,0,1,.76.9v5.07a.91.91,0,0,1-.91.9h-2.86a.89.89,0,0,1-.84-.57,5,5,0,0,0-.9-1.6,2.27,2.27,0,0,0-1.79-.76,2.65,2.65,0,0,0-1.19.33,4.14,4.14,0,0,0-1.19.93,3.69,3.69,0,0,0-.79,1.22,5.55,5.55,0,0,0-.3,1.25,18.15,18.15,0,0,0-.07,1.91v7.79a19.9,19.9,0,0,0,.17,3.24,2.73,2.73,0,0,0,.68,1.46,2.55,2.55,0,0,0,1.09.59.89.89,0,0,1,.64.86h0a.9.9,0,0,1-.9.9H288.72a.9.9,0,0,1-.9-.9v-.06a.88.88,0,0,1,.58-.83,2.62,2.62,0,0,0,1-.65,2.79,2.79,0,0,0,.61-1.39,20.64,20.64,0,0,0,.16-3.2v-10c0-1.21,0-2.1-.06-2.68a4.39,4.39,0,0,0-.29-1.39,2,2,0,0,0-.71-.85,3.7,3.7,0,0,0-1-.42.91.91,0,0,1-.67-.86v-.08a.9.9,0,0,1,.88-.9l5.81-.17h2.08a.89.89,0,0,1,.9,1Z"/></g></g></svg>